#!OML:ASF H:\Terrain\Patient Classification 1\Walking\liu\liu.ASF
:FULLY-SPECIFIED
:DEGREES
89
root 9.8316329715 16.4406722097 8.20832217012 7.87693314588 9.1527414708 5.64609169002
lowerback -8.30519051262 -4.98247340663 -7.68268014363
upperback -1.04610970977 -5.99358604298 1.50575212923
thorax 4.50546478992 -3.12284915288 5.1111159712
lowerneck -19.461132965 -5.31918596989 -12.5573306917
upperneck 22.0688031494 -6.82733646085 12.3492554554
head 11.2674583055 -2.71574748512 5.60052447869
rclavicle 5.62899513693e-14 1.45423995407e-14
rhumerus -50.3259817531 5.0449946273 -83.0049399686
rradius 30.4630964953
rwrist -15.2813281533
rhand -28.8439262654 -23.5872274689
rfingers 7.12502
rthumb -2.20098141468 -53.5556273162
lclavicle 5.62899513693e-14 1.45423995407e-14
lhumerus -18.5420091638 -40.349130868 95.8828761635
lradius 41.9103212742
lwrist 12.4018353124
lhand -5.2763861348 -23.5182796815
lfingers 7.12502
lthumb 20.5278051086 5.41647470404
rfemur -42.9569855738 3.20737854304 9.8687833294
rtibia 29.7090022057
rfoot -19.7097136831 -7.25518939065
rtoes -30.1709000718
lfemur 20.5728330089 3.78932765187 -25.4301060736
ltibia -6.93914557512e-08
lfoot -11.39683882 -3.76329484043
ltoes -4.09776409713
90
root 9.7729301821 16.392727997 8.9208150082 7.48535092655 9.62622480078 5.07401103687
lowerback -8.35332817127 -4.9686255716 -7.03004363665
upperback -1.07459803981 -6.03805406226 1.6491574744
thorax 4.45724056523 -3.13235176112 4.88988874918
lowerneck -18.9526817602 -5.26045937411 -13.2434448561
upperneck 21.2962427794 -6.6874492315 12.9933818243
head 10.9149079429 -2.65262634846 5.96145496343
rclavicle 1.26835289766e-14 -4.55346723208e-15
rhumerus -50.7659649669 4.8757040155 -82.6732916575
rradius 30.5720812675
rwrist -15.7884598586
rhand -28.6608349738 -23.1398676825
rfingers 7.12502
rthumb -2.02416968156 -53.1099475839
lclavicle 1.26835289766e-14 -4.55346723208e-15
lhumerus -21.0296873424 -40.5461604843 98.0152729221
lradius 41.75148557
lwrist 10.1596716336
lhand -4.78323911679 -24.1276891259
lfingers 7.12502
lthumb 21.0016260117 4.75510558038
rfemur -43.140567059 1.97231772824 11.6998342391
rtibia 33.0604167113
rfoot -9.10998101519 -3.18879670168
rtoes -27.5896019816
lfemur 23.275784991 4.07502593928 -23.456988521
ltibia -1.57234788172e-05
lfoot -9.06120958313 -4.40221054298
ltoes -12.4367234636
91
root 9.6922867046 16.3519588639 9.60765795764 6.9497801654 9.40980536761 3.75827413429
lowerback -7.87098101242 -4.64445384332 -5.83563229868
upperback -1.16528072929 -5.75744109349 1.92240619288
thorax 3.96360437123 -2.96158860854 4.59459125139
lowerneck -18.8885175804 -5.09943671935 -13.0402044707
upperneck 20.8110550067 -6.53668630905 13.2052560529
head 10.7025747196 -2.54427413452 6.01210177463
rclavicle 4.81953150959e-14 6.09518808831e-15
rhumerus -50.9018184728 5.11237171151 -82.6407837032
rradius 30.5075073301
rwrist -15.8221052139
rhand -28.4444161794 -22.1975906269
rfingers 7.12502
rthumb -1.81511773049 -52.1696648739
lclavicle 4.81953150959e-14 6.09518808831e-15
lhumerus -23.9215489883 -39.7685779945 100.214299228
lradius 40.7761673646
lwrist 9.28139655779
lhand -5.87507350276 -24.7565801647
lfingers 7.12502
lthumb 19.9524712386 4.23906557188
rfemur -43.1003434068 1.49514009069 14.4909430856
rtibia 37.4389615784
rfoot -5.4698517753 -0.948412318679
rtoes -24.3683317027
lfemur 25.854271582 5.01446205397 -20.654641701
ltibia -0.000194576113178
lfoot -3.80200524869 -4.95858407846
ltoes -15.6219944097
92
root 9.60660830838 16.3445566352 10.2870042953 6.76090189088 9.12436077546 2.27329361907
lowerback -7.91904952029 -4.57029897381 -4.69358233614
upperback -1.36226672445 -5.77453696746 2.432397145
thorax 3.72788726172 -2.94846151588 4.49375805833
lowerneck -18.9717568849 -4.85313565104 -13.0654661388
upperneck 20.7420198213 -6.21506819978 13.4144833643
head 10.6515126066 -2.37308227323 6.14522954078
rclavicle 6.26793701668e-14 -9.17266441343e-15
rhumerus -49.7577991696 5.75730756398 -82.488783883
rradius 29.6102555133
rwrist -14.381135669
rhand -26.6734934678 -26.3678203367
rfingers 7.12502
rthumb -0.104735189862 -56.3462569792
lclavicle 6.26793701668e-14 -9.17266441343e-15
lhumerus -26.6697440942 -36.3282145761 102.065149321
lradius 38.2871352667
lwrist 7.7131025656
lhand -7.61216100485 -25.0937056734
lfingers 7.12502
lthumb 18.2819274255 4.06679916715
rfemur -42.5750697703 1.60008997536 17.4415390567
rtibia 40.7853984849
rfoot -5.70682628717 0.583667780212
rtoes -17.6857621197
lfemur 27.5434639775 6.00421483506 -17.7156170468
ltibia 0.187914264167
lfoot 3.31310357306 -3.78815054507
ltoes -16.186588992
93
root 9.53141385296 16.4157593307 10.9474039532 5.97055105045 9.72497147816 1.05124189782
lowerback -7.504688087 -4.60311465519 -3.76296476622
upperback -1.15246722078 -5.9216982787 2.71458985608
thorax 3.66962619511 -3.01535406283 4.27249065404
lowerneck -19.8442866451 -5.02234856452 -12.6523571467
upperneck 21.3506998021 -6.43709106905 13.0203384433
head 11.0472665742 -2.45580661396 5.9119284252
rclavicle 4.72379937215e-14 -9.59915079624e-15
rhumerus -47.8388708505 4.30241622549 -81.0163025958
rradius 28.1259226363
rwrist -11.965719418
rhand -24.9628521292 -25.5988389222
rfingers 7.12502
rthumb 1.54745225534 -55.5728037387
lclavicle 4.72379937215e-14 -9.59915079624e-15
lhumerus -28.1481168299 -32.6001656093 102.864072973
lradius 34.4730953666
lwrist 7.13445019675
lhand -10.6306522174 -25.5513990166
lfingers 7.12502
lthumb 15.3762300551 3.85690837869
rfemur -39.9114841454 1.15642121263 19.9584792743
rtibia 42.3923242702
rfoot -7.86501077231 1.88456282146
rtoes -15.4903793517
lfemur 22.3698112717 6.6286465056 -14.7419834201
ltibia 13.831018456
lfoot 5.74180471475 -4.14667304541
ltoes -11.8844382975
